<svg width="48" height="48" viewBox="0 0 48 48" fill="none" xmlns="http://www.w3.org/2000/svg">
<path d="M16 44C17.1046 44 18 43.1046 18 42C18 40.8954 17.1046 40 16 40C14.8954 40 14 40.8954 14 42C14 43.1046 14.8954 44 16 44Z" stroke="#EEEEEE" stroke-width="3" stroke-linecap="round" stroke-linejoin="round"/>
<path d="M38 44C39.1046 44 40 43.1046 40 42C40 40.8954 39.1046 40 38 40C36.8954 40 36 40.8954 36 42C36 43.1046 36.8954 44 38 44Z" stroke="#EEEEEE" stroke-width="3" stroke-linecap="round" stroke-linejoin="round"/>
<path d="M4.09998 4.10001H8.09998L13.42 28.94C13.6151 29.8497 14.1213 30.663 14.8514 31.2397C15.5815 31.8165 16.4898 32.1207 17.42 32.1H36.98C37.8903 32.0985 38.7729 31.7866 39.482 31.2157C40.1911 30.6448 40.6843 29.8491 40.88 28.96L44.18 14.1H10.24" stroke="#EEEEEE" stroke-width="3" stroke-linecap="round" stroke-linejoin="round"/>
</svg>
