<svg width="24" height="24" viewBox="0 0 24 24" fill="none" xmlns="http://www.w3.org/2000/svg">
<path d="M4 20C4 19.4696 4.21071 18.9609 4.58579 18.5858C4.96086 18.2107 5.46957 18 6 18H18C18.5304 18 19.0391 18.2107 19.4142 18.5858C19.7893 18.9609 20 19.4696 20 20V21C20 21.2652 19.8946 21.5196 19.7071 21.7071C19.5196 21.8946 19.2652 22 19 22H5C4.73478 22 4.48043 21.8946 4.29289 21.7071C4.10536 21.5196 4 21.2652 4 21V20Z" stroke="#EEEEEE" stroke-width="2" stroke-linecap="round" stroke-linejoin="round"/>
<path d="M12.474 5.94299L14.041 11.283C14.0932 11.4596 14.1932 11.6183 14.3299 11.7417C14.4666 11.865 14.6347 11.9483 14.8157 11.9822C14.9967 12.0161 15.1835 11.9994 15.3556 11.9339C15.5277 11.8684 15.6784 11.7567 15.791 11.611L18.407 8.20899" stroke="#EEEEEE" stroke-width="2" stroke-linecap="round" stroke-linejoin="round"/>
<path d="M20 9L17 18" stroke="#EEEEEE" stroke-width="2" stroke-linecap="round" stroke-linejoin="round"/>
<path d="M5.59399 8.20899L8.20899 11.612C8.3217 11.7576 8.47244 11.8693 8.6446 11.9348C8.81675 12.0002 9.00363 12.0168 9.18463 11.9828C9.36563 11.9488 9.53372 11.8654 9.67035 11.7419C9.80699 11.6185 9.90688 11.4596 9.95899 11.283L11.526 5.94299" stroke="#EEEEEE" stroke-width="2" stroke-linecap="round" stroke-linejoin="round"/>
<path d="M7 18L4 9" stroke="#EEEEEE" stroke-width="2" stroke-linecap="round" stroke-linejoin="round"/>
<path d="M12 6C13.1046 6 14 5.10457 14 4C14 2.89543 13.1046 2 12 2C10.8954 2 10 2.89543 10 4C10 5.10457 10.8954 6 12 6Z" stroke="#EEEEEE" stroke-width="2" stroke-linecap="round" stroke-linejoin="round"/>
<path d="M20 9C21.1046 9 22 8.10457 22 7C22 5.89543 21.1046 5 20 5C18.8954 5 18 5.89543 18 7C18 8.10457 18.8954 9 20 9Z" stroke="#EEEEEE" stroke-width="2" stroke-linecap="round" stroke-linejoin="round"/>
<path d="M4 9C5.10457 9 6 8.10457 6 7C6 5.89543 5.10457 5 4 5C2.89543 5 2 5.89543 2 7C2 8.10457 2.89543 9 4 9Z" stroke="#EEEEEE" stroke-width="2" stroke-linecap="round" stroke-linejoin="round"/>
</svg>
