<svg width="35" height="35" viewBox="0 0 35 35" fill="none" xmlns="http://www.w3.org/2000/svg">
<path d="M31.8022 26.02H8.67332C7.90655 26.02 7.17119 25.7154 6.629 25.1732C6.08682 24.631 5.78222 23.8956 5.78222 23.1289V10.1189C5.78222 9.35212 5.47762 8.61676 4.93543 8.07457C4.39325 7.53238 3.65788 7.22778 2.89111 7.22778" stroke="#EEEEEE" stroke-width="2" stroke-linecap="round" stroke-linejoin="round"/>
<path d="M24.5744 20.2377V5.78222C24.5744 5.01545 24.2698 4.28009 23.7276 3.7379C23.1854 3.19571 22.45 2.89111 21.6833 2.89111H20.2377C19.471 2.89111 18.7356 3.19571 18.1934 3.7379C17.6512 4.28009 17.3466 5.01545 17.3466 5.78222V20.2377" stroke="#EEEEEE" stroke-width="2" stroke-linecap="round" stroke-linejoin="round"/>
<path d="M28.9111 8.67334H13.01C12.2116 8.67334 11.5644 9.32054 11.5644 10.1189V18.7922C11.5644 19.5906 12.2116 20.2378 13.01 20.2378H28.9111C29.7094 20.2378 30.3566 19.5906 30.3566 18.7922V10.1189C30.3566 9.32054 29.7094 8.67334 28.9111 8.67334Z" stroke="#EEEEEE" stroke-width="2" stroke-linecap="round" stroke-linejoin="round"/>
<path d="M26.02 31.8021C27.6167 31.8021 28.9111 30.5077 28.9111 28.911C28.9111 27.3143 27.6167 26.0199 26.02 26.0199C24.4232 26.0199 23.1288 27.3143 23.1288 28.911C23.1288 30.5077 24.4232 31.8021 26.02 31.8021Z" stroke="#EEEEEE" stroke-width="2" stroke-linecap="round" stroke-linejoin="round"/>
<path d="M13.01 31.8021C14.6067 31.8021 15.9011 30.5077 15.9011 28.911C15.9011 27.3143 14.6067 26.0199 13.01 26.0199C11.4133 26.0199 10.1189 27.3143 10.1189 28.911C10.1189 30.5077 11.4133 31.8021 13.01 31.8021Z" stroke="#EEEEEE" stroke-width="2" stroke-linecap="round" stroke-linejoin="round"/>
</svg>
